<?xml version="1.0" encoding="utf-8"?>
<!-- Generator: Adobe Illustrator 24.1.1, SVG Export Plug-In . SVG Version: 6.00 Build 0)  -->
<svg version="1.1" id="Layer_1" xmlns="http://www.w3.org/2000/svg" xmlns:xlink="http://www.w3.org/1999/xlink" x="0px" y="0px"
	 viewBox="0 0 283.6 80" style="enable-background:new 0 0 283.6 80;" xml:space="preserve">
<style type="text/css">
	.st0{fill-rule:evenodd;clip-rule:evenodd;fill:#FFFFFF;}
	.st1{fill:#FFFFFF;}
</style>
<g>
	<path class="st0" d="M31.1,38.1c0,11.5,0,23.1,0,34.5c0,3.2,0,3.2-3.3,3.2c-7.4,0-14.7,0-22.1,0c-0.9,0-1.8,0-2.7-0.1
		c-1.7-0.3-2.9-1.2-3-3C-0.1,71,0.9,70,2.5,69.5c2.6-0.6,3.3-2.2,3.3-4.7c0-17.8,0-35.8,0.1-53.7c0-2.5-0.7-4.1-3.3-4.7
		C1,6.1,0.1,4.9,0.1,3.2c0-1.8,1.3-2.6,2.8-2.9C3.7,0.1,4.6,0,5.6,0c7.6,0,15.2,0,22.8,0c2.7,0,2.9,0.2,2.9,2.9
		C31.1,14.7,31.1,26.4,31.1,38.1z"/>
	<path class="st0" d="M68.3,40.1c-0.4,13.8-5.6,25-18.1,32.1c-4,2.2-8.3,3.3-12.8,3.7c-1.6,0.2-2.5-0.3-2.5-2.1
		c0-2.2-0.1-4.2,2.8-5.1c1.9-0.6,3.1-2.5,3.4-4.6c0.2-1.5,0.4-3,0.4-4.6c0-14.3,0-28.7,0-43c0-1.5-0.2-2.9-0.4-4.4
		c-0.4-2.6-1.8-4.4-4.4-5.3C35,6.1,34.3,3.5,35,1.2c0.5-1.7,2-1.1,3.2-1c17,1.6,25.8,13.5,28.7,27.9C67.7,32,68.4,36,68.3,40.1z"/>
	<path class="st0" d="M78.4,40.8c-2.7,0,0.5,0-2.1,0c-1,0-1.4-0.2-1.3-0.9c0.1-1.3,0-2.6,0-3.8c0-0.6,0.3-0.9,1.3-0.9
		c5.4,0,4.9,0,10.3,0c1,0,1.4,0.2,1.3,0.9c-0.1,1.3-0.1,2.6,0,3.7c0,0.7-0.4,1-1.5,1C83.6,40.7,81,40.8,78.4,40.8z"/>
	<path class="st1" d="M126.7,36.4l-9.9,21.3l-8.7-0.1l-10.6-32c-0.1-0.5-0.9-1.1-2.2-1.8C94,23,93.4,22.1,93.4,21v-3l20.5,0.1
		l0.3,2.6c0.1,0.6-0.5,1.3-1.9,1.7c-1.4,0.5-2,1.2-2,2c0,0.3,0,0.6,0.1,1l5.7,18.2l8.1-14.7L126.7,36.4z M146.7,51.4l-2.5,6.2
		l-8.4,0.2l-9.8-32.1c-0.4-1.4-1.3-2.2-2.6-2.8c-1.3-0.5-1.9-1.4-1.9-2.7l-0.1-2h20.9v3.3c0,0.5-0.6,1.1-1.9,1.4
		c-1.3,0.3-1.8,0.7-1.7,1.4L146.7,51.4z M161.4,21.1c0,1-0.7,1.6-2.2,1.9c-1.5,0.3-2.3,0.9-2.6,1.7l-8.9,22.6l-2.3-8.2l5.7-14.4
		c0.1-0.1,0.1-0.2,0.1-0.4c0-0.4-0.6-0.9-1.8-1.4c-1.2-0.5-1.8-1.2-1.8-1.9l0-2.9h14L161.4,21.1z"/>
	<path class="st1" d="M183.1,51.4c0,0.7,0.9,1.2,2.5,1.5c1.6,0.2,2.5,1,2.5,1.9v2.9h-22.6l0.1-2.8c0-1,0.7-1.7,2.2-2
		c1.5-0.4,2.2-1,2.2-1.7v-26c0-1.6-0.9-2.5-2.5-2.5c-1.6-0.1-2.5-0.5-2.5-1.4v-3.2h22.9l-0.1,3.3c0,0.7-0.9,1.2-2.5,1.4
		c-1.6,0.2-2.5,1.1-2.5,2.7L183.1,51.4z"/>
	<path class="st1" d="M205.6,55.1v2.6h-13.8V55c0-0.6,0.7-1.2,2.2-1.6c1.5-0.4,2.2-1.2,2.2-2v-27l4.5,5.9v20.8
		c0,0.9,0.7,1.5,2.3,2.1C204.9,53.7,205.6,54.4,205.6,55.1z M232.2,44.6v13h-6.1L198.8,23c-0.3-0.3-1-0.6-2-0.9
		c-1.1-0.2-1.6-0.6-1.6-1.4v-2.6h16.6L232.2,44.6z M237.3,21c0,0.7-0.9,1.4-2.6,1.8c-1.7,0.4-2.6,1.1-2.6,1.9v15.3l-4.9-5.8v-9.6
		c0-0.6-1-1.4-2.8-2.3c-0.9-0.4-1.4-1-1.4-1.7v-2.5h14.1L237.3,21z"/>
	<path class="st1" d="M260.7,18.1v39.6h-17.8l0.1-2.5c0-0.7,0.6-1.4,2-1.8c1.4-0.4,2-1.1,2-1.7V24.1c0-0.6-0.7-1.1-2.1-1.4
		c-1.4-0.3-2.1-1-2.1-2l0.1-2.6h17.8V18.1z M274.2,43.9l-2.6,0.1c-0.9,0-1.4-0.7-1.6-2.1c-0.2-1.4-2.5-2.1-3.4-2.1h-2.2
		c-0.3,0-0.6-0.1-0.7-0.5c-0.2-0.3-0.2-0.9-0.2-1.5c0-0.7,0.1-1.4,0.3-1.9s0.4-0.9,0.7-0.9h2.3c0.9,0,2.9-0.7,3.1-2.3
		c0.1-1.6,0.6-2.3,1.6-2.3h2.9v13.7H274.2z M283.6,18.1v15.8H280c-1.4,0-2.1-1.3-2.3-3.8c-0.2-2.6-0.9-4.3-1.9-5.2
		c-0.4-0.3-1-0.6-1.5-0.7c-0.6-0.1-1.3-0.2-2.1-0.2c-0.3,0-0.6,0-1.1,0c-0.3,0-0.6,0-1,0c-1.1,0-5.6-0.1-5.9-0.3
		c-0.5-0.2-0.9-0.7-0.9-1.5l0.1-4.1h20.2V18.1z M283.6,57.7h-20.3l-0.1-4.1c0-0.7,0.2-1.3,0.7-1.5c0.5-0.2,5-0.3,6.1-0.3
		c0.3,0,0.6,0,1,0c0.3,0,0.7,0,1.1,0c0.7,0,1.5-0.1,2-0.2c0.6-0.1,1.1-0.3,1.6-0.7c1-0.9,1.6-2.7,1.8-5.4c0.2-2.8,1.1-4.3,2.5-4.3
		h3.6L283.6,57.7z"/>
	<path class="st1" d="M106.3,76.5c-0.1-0.1-0.2-0.3-0.2-0.5v-9.7c0-0.2,0.1-0.4,0.2-0.5c0.1-0.1,0.3-0.2,0.5-0.2h6.5
		c0.2,0,0.4,0.1,0.5,0.2c0.1,0.1,0.2,0.3,0.2,0.5c0,0.2-0.1,0.3-0.2,0.5c-0.1,0.1-0.3,0.2-0.5,0.2h-5.8v3.5h4.1
		c0.2,0,0.4,0.1,0.5,0.2c0.1,0.1,0.2,0.3,0.2,0.5s-0.1,0.3-0.2,0.5c-0.1,0.1-0.3,0.2-0.5,0.2h-4.1v4.2c0,0.2-0.1,0.4-0.2,0.5
		c-0.1,0.1-0.3,0.2-0.5,0.2C106.6,76.7,106.4,76.6,106.3,76.5z"/>
	<path class="st1" d="M121.3,69.3c0.6,0.3,1.1,0.9,1.4,1.4c0.3,0.6,0.5,1.3,0.5,2v3.2c0,0.2-0.1,0.4-0.2,0.5
		c-0.1,0.1-0.3,0.2-0.5,0.2s-0.4-0.1-0.5-0.2c-0.1-0.1-0.2-0.3-0.2-0.5v-0.5c-0.3,0.4-0.7,0.7-1.2,1c-0.4,0.2-1,0.3-1.5,0.3
		c-0.6,0-1.3-0.2-1.8-0.5c-0.5-0.3-1-0.9-1.3-1.4c-0.3-0.6-0.4-1.3-0.4-2c0-0.7,0.2-1.4,0.5-2c0.3-0.6,0.9-1.1,1.4-1.4
		c0.6-0.3,1.3-0.5,2-0.5S120.7,69,121.3,69.3z M120.6,75.1c0.4-0.2,0.6-0.5,1-1c0.2-0.4,0.3-0.9,0.3-1.4c0-0.5-0.1-1-0.3-1.4
		c-0.2-0.4-0.5-0.7-1-1c-0.4-0.2-0.9-0.3-1.3-0.3c-0.4,0-1,0.1-1.3,0.3c-0.4,0.2-0.6,0.5-1,1c-0.2,0.4-0.3,0.9-0.3,1.4
		c0,0.5,0.1,1,0.3,1.4c0.2,0.4,0.5,0.7,1,1c0.4,0.2,0.9,0.3,1.3,0.3C119.7,75.4,120.3,75.3,120.6,75.1z"/>
	<path class="st1" d="M135.7,69.6c0.5,0.5,0.7,1.3,0.7,2.2v4.1c0,0.2-0.1,0.4-0.2,0.5c-0.1,0.1-0.3,0.2-0.5,0.2
		c-0.2,0-0.4-0.1-0.5-0.2c-0.1-0.1-0.2-0.3-0.2-0.5v-4.1c0-0.5-0.1-1.1-0.4-1.3c-0.3-0.3-0.6-0.4-1.2-0.4s-0.9,0.2-1.2,0.5
		c-0.3,0.3-0.4,0.7-0.4,1.3V76c0,0.2-0.1,0.4-0.2,0.5c-0.1,0.1-0.3,0.2-0.5,0.2c-0.2,0-0.4-0.1-0.5-0.2c-0.1-0.1-0.2-0.3-0.2-0.5V72
		c0-0.5-0.1-1.1-0.4-1.3c-0.3-0.3-0.6-0.4-1.2-0.4s-1,0.2-1.3,0.5c-0.3,0.3-0.4,0.7-0.4,1.3v4.1c0,0.2-0.1,0.4-0.2,0.5
		c-0.1,0.1-0.3,0.2-0.5,0.2s-0.4-0.1-0.5-0.2c-0.1-0.1-0.2-0.3-0.2-0.5v-6.4c0-0.2,0.1-0.4,0.2-0.5c0.1-0.1,0.3-0.2,0.5-0.2
		s0.4,0.1,0.5,0.2c0.1,0.1,0.2,0.3,0.2,0.5c0.2-0.2,0.5-0.4,0.9-0.5c0.3-0.1,0.7-0.2,1.1-0.2c0.5,0,1,0.1,1.3,0.3
		c0.4,0.2,0.7,0.4,1,0.9c0.3-0.3,0.6-0.6,1.1-0.9c0.4-0.2,0.9-0.3,1.4-0.3C134.5,68.8,135.1,69,135.7,69.6z"/>
	<path class="st1" d="M139.1,67.3c-0.2-0.2-0.3-0.4-0.3-0.6s0.1-0.4,0.3-0.6c0.2-0.2,0.4-0.3,0.6-0.3c0.2,0,0.4,0.1,0.6,0.3
		c0.2,0.2,0.3,0.4,0.3,0.6c0,0.2-0.1,0.4-0.3,0.6c-0.2,0.2-0.4,0.3-0.6,0.3C139.5,67.6,139.2,67.5,139.1,67.3z M139.2,76.5
		c-0.1-0.1-0.2-0.3-0.2-0.5v-6.4c0-0.2,0.1-0.4,0.2-0.5c0.1-0.1,0.3-0.2,0.5-0.2c0.2,0,0.4,0.1,0.5,0.2c0.1,0.1,0.2,0.3,0.2,0.5v6.4
		c0,0.2-0.1,0.4-0.2,0.5c-0.1,0.1-0.3,0.2-0.5,0.2C139.5,76.7,139.3,76.6,139.2,76.5z"/>
	<path class="st1" d="M143.9,76.4c-0.3-0.2-0.5-0.5-0.7-1c-0.2-0.4-0.3-0.9-0.3-1.4v-7.8c0-0.2,0.1-0.4,0.2-0.5
		c0.1-0.1,0.3-0.2,0.5-0.2c0.2,0,0.4,0.1,0.5,0.2c0.1,0.1,0.2,0.3,0.2,0.5V74c0,0.3,0.1,0.6,0.2,0.9c0.1,0.2,0.3,0.3,0.5,0.3h0.3
		c0.2,0,0.3,0.1,0.4,0.2c0.1,0.1,0.2,0.3,0.2,0.5s-0.1,0.4-0.3,0.5c-0.2,0.1-0.4,0.2-0.7,0.2l0,0C144.6,76.7,144.2,76.6,143.9,76.4z
		"/>
	<path class="st1" d="M153.9,69.4c0,0.1,0,0.2-0.1,0.3l-4.4,9.8c-0.1,0.3-0.3,0.4-0.5,0.4c-0.1,0-0.2,0-0.3-0.1
		c-0.3-0.1-0.4-0.3-0.4-0.5c0-0.1,0-0.2,0.1-0.3l1.4-3.2l-3.2-6.1c0-0.1-0.1-0.2-0.1-0.3s0-0.2,0.1-0.3c0.1-0.1,0.2-0.2,0.3-0.2
		c0.1,0,0.2-0.1,0.3-0.1c0.2,0,0.4,0.1,0.6,0.4l2.7,5.2l2.3-5.2c0.1-0.3,0.3-0.4,0.5-0.4c0.1,0,0.2,0,0.3,0.1
		C153.7,69,153.9,69.2,153.9,69.4z"/>
	<path class="st1" d="M164.4,69c0.3,0.1,0.4,0.3,0.4,0.5c0,0.1,0,0.1,0,0.1c-0.1,0.3-0.3,0.4-0.5,0.4c0,0-0.1,0-0.2,0
		c-0.4-0.1-0.6-0.1-1-0.1c-0.6,0-1.3,0.1-1.7,0.4c-0.4,0.3-0.6,0.7-0.6,1.3v4.2c0,0.2-0.1,0.4-0.2,0.5c-0.1,0.1-0.3,0.2-0.5,0.2
		c-0.2,0-0.4-0.1-0.5-0.2c-0.1-0.1-0.2-0.3-0.2-0.5v-6.4c0-0.2,0.1-0.4,0.2-0.5c0.1-0.1,0.3-0.2,0.5-0.2c0.4,0,0.7,0.2,0.7,0.7v0.3
		c0.3-0.3,0.6-0.6,1.1-0.7c0.4-0.2,0.9-0.3,1.4-0.3C163.6,68.8,164.1,68.9,164.4,69z"/>
	<path class="st1" d="M172.6,73.1c-0.1,0.1-0.3,0.2-0.4,0.2h-5.4c0.1,0.6,0.4,1.2,1,1.6c0.5,0.4,1.1,0.6,1.8,0.6
		c0.3,0,0.5,0,0.9-0.1c0.3-0.1,0.5-0.2,0.7-0.4c0.1-0.1,0.3-0.1,0.4-0.1c0.2,0,0.3,0,0.4,0.1c0.2,0.1,0.2,0.3,0.2,0.5
		s-0.1,0.3-0.2,0.4c-0.3,0.2-0.7,0.4-1.2,0.6c-0.5,0.2-1,0.2-1.4,0.2c-0.7,0-1.5-0.2-2.1-0.5c-0.6-0.3-1.1-0.9-1.5-1.4
		c-0.3-0.6-0.5-1.3-0.5-2s0.2-1.5,0.5-2c0.3-0.6,0.7-1.1,1.4-1.4c0.5-0.3,1.3-0.5,2-0.5c0.7,0,1.4,0.2,1.9,0.5
		c0.5,0.3,1,0.7,1.3,1.4c0.3,0.5,0.4,1.3,0.4,2C172.7,72.8,172.7,73,172.6,73.1z M167.5,70.6c-0.4,0.4-0.7,0.9-0.9,1.5h4.8
		c-0.1-0.6-0.3-1.2-0.7-1.5c-0.4-0.4-0.9-0.5-1.5-0.5C168.4,70.1,167.9,70.2,167.5,70.6z"/>
	<path class="st1" d="M175.6,76.5c-0.5-0.2-1.1-0.4-1.4-0.7c-0.1-0.1-0.2-0.3-0.2-0.4c0-0.2,0.1-0.4,0.3-0.5
		c0.2-0.1,0.3-0.2,0.5-0.2c0.2,0,0.3,0.1,0.5,0.2c0.2,0.2,0.4,0.4,0.9,0.5c0.3,0.1,0.7,0.2,1.2,0.2c0.5,0,1-0.1,1.3-0.3
		c0.3-0.2,0.4-0.4,0.4-0.7c0-0.3-0.1-0.5-0.4-0.7c-0.3-0.2-0.7-0.3-1.5-0.5c-1.8-0.3-2.8-1.1-2.8-2.2c0-0.4,0.1-0.9,0.4-1.2
		c0.3-0.3,0.6-0.5,1.1-0.7s1-0.2,1.4-0.2c0.6,0,1.2,0.1,1.7,0.3c0.5,0.2,0.9,0.4,1.2,0.9c0.1,0.1,0.2,0.3,0.2,0.4
		c0,0.2-0.1,0.3-0.2,0.4c-0.1,0.1-0.2,0.1-0.4,0.1c-0.2,0-0.4-0.1-0.6-0.3c-0.2-0.2-0.5-0.4-0.7-0.4c-0.3-0.1-0.6-0.1-1-0.1
		c-0.4,0-0.7,0.1-1.1,0.2c-0.3,0.1-0.4,0.3-0.4,0.6c0,0.2,0,0.3,0.1,0.4c0.1,0.1,0.3,0.2,0.5,0.3c0.2,0.1,0.6,0.2,1.2,0.3
		c1.1,0.2,1.8,0.5,2.2,0.9c0.4,0.3,0.6,0.9,0.6,1.5c0,0.4-0.1,0.9-0.3,1.2s-0.6,0.6-1.1,0.9c-0.4,0.2-1.1,0.3-1.7,0.3
		C176.8,76.7,176.2,76.6,175.6,76.5z"/>
	<path class="st1" d="M186.2,75.4c0.1,0.1,0.2,0.3,0.2,0.5s-0.1,0.4-0.2,0.5c-0.1,0.1-0.3,0.2-0.6,0.2h-0.2c-0.4,0-0.9-0.1-1.3-0.3
		s-0.6-0.5-1-1c-0.2-0.4-0.3-0.9-0.3-1.4v-3.5h-0.6c-0.2,0-0.3-0.1-0.5-0.2c-0.1-0.1-0.2-0.2-0.2-0.4c0-0.2,0.1-0.3,0.2-0.4
		c0.1-0.1,0.3-0.2,0.5-0.2h0.6v-2c0-0.2,0.1-0.4,0.2-0.5c0.1-0.1,0.3-0.2,0.5-0.2c0.2,0,0.4,0.1,0.5,0.2c0.1,0.1,0.2,0.3,0.2,0.5v2
		h1.2c0.2,0,0.3,0.1,0.5,0.2c0.1,0.1,0.2,0.2,0.2,0.4c0,0.2-0.1,0.3-0.2,0.4c-0.1,0.1-0.3,0.2-0.5,0.2h-1.2V74c0,0.4,0.1,0.7,0.3,1
		c0.2,0.2,0.4,0.4,0.7,0.4h0.5C185.9,75.2,186.1,75.3,186.2,75.4z"/>
	<path class="st1" d="M193.7,69.3c0.6,0.3,1.1,0.9,1.4,1.4c0.3,0.6,0.5,1.3,0.5,2v3.2c0,0.2-0.1,0.4-0.2,0.5
		c-0.1,0.1-0.3,0.2-0.5,0.2c-0.2,0-0.4-0.1-0.5-0.2c-0.1-0.1-0.2-0.3-0.2-0.5v-0.5c-0.3,0.4-0.7,0.7-1.2,1c-0.4,0.2-1,0.3-1.5,0.3
		c-0.6,0-1.3-0.2-1.8-0.5c-0.5-0.3-1-0.9-1.3-1.4c-0.3-0.6-0.4-1.3-0.4-2c0-0.7,0.2-1.4,0.5-2s0.9-1.1,1.4-1.4
		c0.6-0.3,1.3-0.5,2-0.5C192.4,68.8,193,69,193.7,69.3z M192.9,75.1c0.4-0.2,0.6-0.5,1-1c0.2-0.4,0.3-0.9,0.3-1.4
		c0-0.5-0.1-1-0.3-1.4c-0.2-0.4-0.5-0.7-1-1c-0.4-0.2-0.9-0.3-1.3-0.3s-1,0.1-1.3,0.3c-0.4,0.2-0.6,0.5-1,1
		c-0.2,0.4-0.3,0.9-0.3,1.4c0,0.5,0.1,1,0.3,1.4c0.2,0.4,0.5,0.7,1,1c0.4,0.2,0.9,0.3,1.3,0.3C192.2,75.4,192.6,75.3,192.9,75.1z"/>
	<path class="st1" d="M204.8,69c0.1,0.1,0.2,0.3,0.2,0.5v6.4c0,0.2-0.1,0.4-0.2,0.5c-0.1,0.1-0.3,0.2-0.5,0.2
		c-0.2,0-0.4-0.1-0.5-0.2c-0.1-0.1-0.2-0.3-0.2-0.5v-0.1c-0.3,0.3-0.6,0.5-1.1,0.7s-0.9,0.2-1.4,0.2c-0.6,0-1.3-0.1-1.8-0.4
		c-0.5-0.3-1-0.7-1.3-1.3c-0.3-0.5-0.4-1.2-0.4-2v-3.5c0-0.2,0.1-0.4,0.2-0.5c0.1-0.1,0.3-0.2,0.5-0.2c0.2,0,0.4,0.1,0.5,0.2
		c0.1,0.1,0.2,0.3,0.2,0.5v3.5c0,0.7,0.2,1.4,0.6,1.7c0.4,0.4,1,0.6,1.6,0.6c0.4,0,0.7-0.1,1.1-0.2c0.3-0.2,0.5-0.4,0.7-0.6
		c0.2-0.3,0.3-0.5,0.3-1v-4.1c0-0.2,0.1-0.4,0.2-0.5c0.1-0.1,0.3-0.2,0.5-0.2C204.4,68.8,204.7,68.9,204.8,69z"/>
	<path class="st1" d="M212.6,69c0.3,0.1,0.4,0.3,0.4,0.5c0,0.1,0,0.1,0,0.1c-0.1,0.3-0.3,0.4-0.5,0.4c0,0-0.1,0-0.2,0
		c-0.4-0.1-0.6-0.1-1-0.1c-0.6,0-1.3,0.1-1.7,0.4c-0.4,0.3-0.6,0.7-0.6,1.3v4.2c0,0.2-0.1,0.4-0.2,0.5c-0.1,0.1-0.3,0.2-0.5,0.2
		c-0.2,0-0.4-0.1-0.5-0.2c-0.1-0.1-0.2-0.3-0.2-0.5v-6.4c0-0.2,0.1-0.4,0.2-0.5c0.1-0.1,0.3-0.2,0.5-0.2c0.4,0,0.7,0.2,0.7,0.7v0.3
		c0.3-0.3,0.6-0.6,1.1-0.7c0.4-0.2,0.9-0.3,1.4-0.3C211.9,68.8,212.2,68.9,212.6,69z"/>
	<path class="st1" d="M219.5,69.3c0.6,0.3,1.1,0.9,1.4,1.4c0.3,0.6,0.5,1.3,0.5,2v3.2c0,0.2-0.1,0.4-0.2,0.5
		c-0.1,0.1-0.3,0.2-0.5,0.2c-0.2,0-0.4-0.1-0.5-0.2c-0.1-0.1-0.2-0.3-0.2-0.5v-0.5c-0.3,0.4-0.7,0.7-1.2,1c-0.4,0.2-1,0.3-1.5,0.3
		c-0.6,0-1.3-0.2-1.8-0.5c-0.5-0.3-1-0.9-1.3-1.4c-0.3-0.6-0.4-1.3-0.4-2c0-0.7,0.2-1.4,0.5-2s0.9-1.1,1.4-1.4
		c0.6-0.3,1.3-0.5,2-0.5C218.2,68.8,218.9,69,219.5,69.3z M218.8,75.1c0.4-0.2,0.6-0.5,1-1c0.2-0.4,0.3-0.9,0.3-1.4
		c0-0.5-0.1-1-0.3-1.4c-0.2-0.4-0.5-0.7-1-1c-0.4-0.2-0.9-0.3-1.3-0.3s-1,0.1-1.3,0.3c-0.4,0.2-0.6,0.5-1,1
		c-0.2,0.4-0.3,0.9-0.3,1.4c0,0.5,0.1,1,0.3,1.4c0.2,0.4,0.5,0.7,1,1c0.4,0.2,0.9,0.3,1.3,0.3C217.9,75.4,218.3,75.3,218.8,75.1z"/>
	<path class="st1" d="M229.2,69.2c0.5,0.3,1,0.7,1.3,1.3c0.3,0.5,0.4,1.2,0.4,2V76c0,0.2-0.1,0.4-0.2,0.5c-0.1,0.1-0.3,0.2-0.5,0.2
		c-0.2,0-0.4-0.1-0.5-0.2c-0.1-0.1-0.2-0.3-0.2-0.5v-3.5c0-0.7-0.2-1.4-0.6-1.7c-0.4-0.4-1-0.6-1.6-0.6c-0.4,0-0.7,0.1-1.1,0.2
		c-0.3,0.2-0.5,0.4-0.7,0.6c-0.2,0.3-0.3,0.5-0.3,1V76c0,0.2-0.1,0.4-0.2,0.5c-0.1,0.1-0.3,0.2-0.5,0.2c-0.2,0-0.4-0.1-0.5-0.2
		c-0.1-0.1-0.2-0.3-0.2-0.5v-6.4c0-0.2,0.1-0.4,0.2-0.5c0.1-0.1,0.3-0.2,0.5-0.2c0.2,0,0.4,0.1,0.5,0.2c0.1,0.1,0.2,0.3,0.2,0.5v0.1
		c0.3-0.3,0.6-0.5,1.1-0.7c0.4-0.2,0.9-0.2,1.4-0.2C228.2,68.8,228.7,68.9,229.2,69.2z"/>
	<path class="st1" d="M237.1,75.4c0.1,0.1,0.2,0.3,0.2,0.5s-0.1,0.4-0.2,0.5c-0.1,0.1-0.3,0.2-0.6,0.2h-0.3c-0.4,0-0.9-0.1-1.3-0.3
		s-0.6-0.5-1-1c-0.2-0.4-0.3-0.9-0.3-1.4v-3.5H233c-0.2,0-0.3-0.1-0.5-0.2c-0.1-0.1-0.2-0.2-0.2-0.4c0-0.2,0.1-0.3,0.2-0.4
		c0.1-0.1,0.3-0.2,0.5-0.2h0.6v-2c0-0.2,0.1-0.4,0.2-0.5c0.1-0.1,0.3-0.2,0.5-0.2s0.4,0.1,0.5,0.2c0.1,0.1,0.2,0.3,0.2,0.5v2h1.2
		c0.2,0,0.3,0.1,0.5,0.2c0.1,0.1,0.2,0.2,0.2,0.4c0,0.2-0.1,0.3-0.2,0.4c-0.1,0.1-0.3,0.2-0.5,0.2h-1.2V74c0,0.4,0.1,0.7,0.3,1
		c0.2,0.2,0.4,0.4,0.7,0.4h0.5C236.8,75.2,237,75.3,237.1,75.4z"/>
	<path class="st1" d="M252,76c0,0.1-0.1,0.2-0.2,0.4c-0.1,0.1-0.3,0.2-0.4,0.2c-0.1,0-0.3-0.1-0.4-0.2l-1.6-1.6l-0.1,0.1
		c-0.5,0.6-1.1,1.1-1.7,1.4c-0.5,0.3-1.3,0.5-1.9,0.5c-1,0-1.6-0.2-2.2-0.7c-0.5-0.5-0.9-1.2-0.9-2c0-0.6,0.2-1.2,0.5-1.7
		c0.4-0.5,1-1.1,1.8-1.7l0.1-0.1l-0.7-0.7c-0.6-0.6-1-1.4-1-2.2c0-0.4,0.1-0.9,0.3-1.3c0.2-0.3,0.5-0.6,1-0.9
		c0.4-0.2,0.9-0.3,1.4-0.3s1,0.1,1.4,0.3c0.4,0.2,0.7,0.5,1,1c0.2,0.4,0.3,0.9,0.3,1.3c0,0.5-0.1,1.1-0.4,1.4
		c-0.3,0.4-0.7,0.9-1.4,1.4l2.6,2.6l1.2-1.2c0.2-0.2,0.3-0.3,0.5-0.3c0.1,0,0.2,0.1,0.3,0.2c0.1,0.1,0.2,0.3,0.2,0.4
		c0,0.2-0.1,0.3-0.2,0.4l-1.2,1.3l1.6,1.6C252,75.7,252,75.9,252,76z M248.6,74l-2.7-2.7l-0.2,0.1c-0.5,0.4-1,0.9-1.3,1.3
		c-0.3,0.4-0.4,0.9-0.4,1.3c0,0.5,0.1,1,0.4,1.2c0.3,0.3,0.7,0.4,1.3,0.4c0.5,0,1-0.1,1.4-0.3c0.4-0.2,0.9-0.6,1.4-1.1L248.6,74z
		 M246,69.9l0.1-0.1c0.4-0.3,0.7-0.7,1-1c0.2-0.2,0.2-0.6,0.2-1c0-0.4-0.1-0.7-0.4-1c-0.2-0.2-0.6-0.4-1.1-0.4s-0.7,0.1-1,0.3
		c-0.2,0.2-0.4,0.5-0.4,0.9c0,0.5,0.2,1,0.7,1.5L246,69.9z"/>
	<path class="st1" d="M258.3,76.5c-0.1-0.1-0.2-0.3-0.2-0.5v-9.7c0-0.2,0.1-0.4,0.2-0.5c0.1-0.1,0.3-0.2,0.5-0.2h3.4
		c0.6,0,1.2,0.1,1.7,0.4c0.5,0.2,0.9,0.6,1.2,1.1c0.3,0.4,0.4,1,0.4,1.5c0,0.4-0.1,0.9-0.4,1.3c-0.2,0.3-0.6,0.6-1.1,0.9
		c0.6,0.1,1.2,0.4,1.5,1c0.3,0.4,0.5,1.1,0.5,1.7s-0.1,1.3-0.4,1.7c-0.3,0.5-0.7,1-1.3,1.2c-0.5,0.3-1.2,0.4-1.9,0.4h-3.7
		C258.6,76.7,258.4,76.6,258.3,76.5z M262.2,70.1c0.5,0,1-0.1,1.4-0.4c0.3-0.3,0.5-0.6,0.5-1.2c0-0.5-0.2-1-0.5-1.2
		c-0.3-0.3-0.7-0.4-1.4-0.4h-2.7v3.2H262.2z M262.5,75.3c0.6,0,1.2-0.2,1.6-0.5c0.4-0.3,0.6-0.9,0.6-1.5s-0.2-1.1-0.6-1.4
		c-0.4-0.3-1-0.4-1.6-0.4h-3v3.8C259.6,75.3,262.5,75.3,262.5,75.3z"/>
	<path class="st1" d="M273.8,69.3c0.6,0.3,1.1,0.9,1.4,1.4c0.3,0.6,0.5,1.3,0.5,2v3.2c0,0.2-0.1,0.4-0.2,0.5
		c-0.1,0.1-0.3,0.2-0.5,0.2c-0.2,0-0.4-0.1-0.5-0.2c-0.1-0.1-0.2-0.3-0.2-0.5v-0.5c-0.3,0.4-0.7,0.7-1.2,1c-0.4,0.2-1,0.3-1.5,0.3
		c-0.6,0-1.3-0.2-1.8-0.5c-0.5-0.3-1-0.9-1.3-1.4c-0.3-0.6-0.4-1.3-0.4-2c0-0.7,0.2-1.4,0.5-2s0.9-1.1,1.4-1.4
		c0.6-0.3,1.3-0.5,2-0.5C272.5,68.8,273.2,69,273.8,69.3z M273.1,75.1c0.4-0.2,0.6-0.5,1-1c0.2-0.4,0.3-0.9,0.3-1.4
		c0-0.5-0.1-1-0.3-1.4c-0.2-0.4-0.5-0.7-1-1c-0.4-0.2-0.9-0.3-1.3-0.3c-0.4,0-1,0.1-1.3,0.3c-0.4,0.2-0.6,0.5-1,1
		c-0.2,0.4-0.3,0.9-0.3,1.4c0,0.5,0.1,1,0.3,1.4c0.2,0.4,0.5,0.7,1,1c0.4,0.2,0.9,0.3,1.3,0.3C272.3,75.4,272.7,75.3,273.1,75.1z"/>
	<path class="st1" d="M282.9,69c0.3,0.1,0.4,0.3,0.4,0.5c0,0.1,0,0.1,0,0.1c-0.1,0.3-0.3,0.4-0.5,0.4c0,0-0.1,0-0.2,0
		c-0.4-0.1-0.6-0.1-1-0.1c-0.6,0-1.3,0.1-1.7,0.4c-0.4,0.3-0.6,0.7-0.6,1.3v4.2c0,0.2-0.1,0.4-0.2,0.5c-0.1,0.1-0.3,0.2-0.5,0.2
		c-0.2,0-0.4-0.1-0.5-0.2c-0.1-0.1-0.2-0.3-0.2-0.5v-6.4c0-0.2,0.1-0.4,0.2-0.5c0.1-0.1,0.3-0.2,0.5-0.2c0.4,0,0.7,0.2,0.7,0.7v0.3
		c0.3-0.3,0.6-0.6,1.1-0.7c0.4-0.2,0.9-0.3,1.4-0.3C282.2,68.8,282.6,68.9,282.9,69z"/>
</g>
</svg>
